HIERARCHY
ROOT Hips
{
	OFFSET 0.000000 97.420761 0.000000
	CHANNELS 6 Xposition Yposition Zposition Xrotation Yrotation Zrotation
	JOINT RightUpLeg
	{
		OFFSET -8.571318 0.002251 -0.000250
		CHANNELS 6 Xposition Yposition Zposition Xrotation Yrotation Zrotation
		JOINT RightLeg
		{
			OFFSET 0.000000 -44.326080 -0.000105
			CHANNELS 6 Xposition Yposition Zposition Xrotation Yrotation Zrotation
			JOINT RightFoot
			{
				OFFSET 0.000000 -43.324329 -0.000176
				CHANNELS 6 Xposition Yposition Zposition Xrotation Yrotation Zrotation
				JOINT RightToeBase
				{
					OFFSET 0.000000 -7.938133 18.050686
					CHANNELS 6 Xposition Yposition Zposition Xrotation Yrotation Zrotation
					End Site
					{
						OFFSET 0.000000 0.000000 19.719055
					}
				}
			}
		}
	}
	JOINT LeftUpLeg
	{
		OFFSET 8.571318 -0.000084 0.000009
		CHANNELS 6 Xposition Yposition Zposition Xrotation Yrotation Zrotation
		JOINT LeftLeg
		{
			OFFSET 0.000000 -44.326080 -0.000105
			CHANNELS 6 Xposition Yposition Zposition Xrotation Yrotation Zrotation
			JOINT LeftFoot
			{
				OFFSET 0.000000 -43.324329 -0.000176
				CHANNELS 6 Xposition Yposition Zposition Xrotation Yrotation Zrotation
				JOINT LeftToeBase
				{
					OFFSET 0.000000 -7.938133 18.050686
					CHANNELS 6 Xposition Yposition Zposition Xrotation Yrotation Zrotation
					End Site
					{
						OFFSET 0.000000 0.000000 19.719055
					}
				}
			}
		}
	}
	JOINT Spine
	{
		OFFSET 0.000000 10.422829 -1.158092
		CHANNELS 6 Xposition Yposition Zposition Xrotation Yrotation Zrotation
		JOINT Spine1
		{
			OFFSET 0.000000 11.587624 0.000000
			CHANNELS 3 Xrotation Yrotation Zrotation
			JOINT Spine2
			{
				OFFSET 0.000000 10.579559 -0.000443
				CHANNELS 6 Xposition Yposition Zposition Xrotation Yrotation Zrotation
				JOINT Spine3
				{
					OFFSET 0.000000 10.567749 -0.000444
					CHANNELS 6 Xposition Yposition Zposition Xrotation Yrotation Zrotation
					JOINT LeftShoulder
					{
						OFFSET 3.218383 8.290512 0.000000
						CHANNELS 6 Xposition Yposition Zposition Xrotation Yrotation Zrotation
						JOINT LeftArm
						{
							OFFSET 15.038529 0.000000 0.000000
							CHANNELS 3 Xrotation Yrotation Zrotation
							JOINT LeftForeArm
							{
								OFFSET 32.129166 0.000000 0.000000
								CHANNELS 3 Xrotation Yrotation Zrotation
								JOINT LeftHand
								{
									OFFSET 26.275406 0.000000 0.000000
									CHANNELS 3 Xrotation Yrotation Zrotation
									End Site
									{
										OFFSET 26.275406 0.000000 0.000000
									}
								}
							}
						}
					}
					JOINT RightShoulder
					{
						OFFSET -3.218383 8.290512 0.000000
						CHANNELS 6 Xposition Yposition Zposition Xrotation Yrotation Zrotation
						JOINT RightArm
						{
							OFFSET -15.038529 0.000000 0.000000
							CHANNELS 3 Xrotation Yrotation Zrotation
							JOINT RightForeArm
							{
								OFFSET -32.129166 0.000000 0.000000
								CHANNELS 3 Xrotation Yrotation Zrotation
								JOINT RightHand
								{
									OFFSET -26.275406 0.000000 0.000000
									CHANNELS 3 Xrotation Yrotation Zrotation
									End Site
									{
										OFFSET -26.275406 0.000000 0.000000
									}
								}
							}
						}
					}
					JOINT Neck
					{
						OFFSET 0.000000 14.789474 0.000000
						CHANNELS 6 Xposition Yposition Zposition Xrotation Yrotation Zrotation
						JOINT Head
						{
							OFFSET 0.000000 9.838806 0.000953
							CHANNELS 6 Xposition Yposition Zposition Xrotation Yrotation Zrotation
							End Site
							{
								OFFSET 0.000000 9.838806 0.000000
							}
						}
					}
				}
			}
		}
	}
}
MOTION
Frames: 4
Frame Time: 0.016667
-183.600693 18.189064 172.597000 -103.770606 -6.550552 28.125751 -8.571323 0.002236 -0.000256 -28.399093 1.639370 -3.137765 0.000014 -44.326080 -0.000098 118.101375 -0.170679 -0.225657 -0.000017 -43.324326 -0.000193 11.741050 -6.782971 3.020399 -0.000001 -7.938130 18.050684 -0.000001 -0.000002 -0.000000 8.571303 -0.000092 0.000013 -35.951240 -5.972053 -3.463904 -0.000004 -44.326057 -0.000092 129.186908 0.027780 0.064126 -0.000017 -43.324326 -0.000171 -0.228983 -6.353297 -5.788397 0.000026 -7.938130 18.050657 -0.000000 0.000000 0.000000 -0.000013 10.422822 -1.158092 1.812070 -2.257490 -0.363175 -5.020200 -0.979454 -0.271029 -0.000014 10.579594 -0.000443 0.800232 -0.979425 -0.271132 0.000029 10.567743 -0.000445 6.437743 -0.751206 -0.128969 3.218374 8.290500 0.000001 -7.654719 0.604523 -0.213665 28.088531 -13.461892 -75.018584 16.766139 -14.187059 -7.638811 2.255507 10.755009 -15.493357 -3.218389 8.290489 0.000000 -10.468940 -5.879590 0.549513 20.129225 20.321432 84.888241 16.916208 1.440022 3.913328 1.251458 -12.144261 18.538230 -0.000016 14.789457 0.000002 3.947482 -0.139740 0.836180 -0.000004 9.838810 0.000955 -28.692310 -0.683860 1.414126 
-183.600998 18.189262 172.597198 -103.771727 -6.550840 28.124989 -8.571295 0.002264 -0.000253 -28.399739 1.639388 -3.137559 0.000002 -44.326080 -0.000097 118.100664 -0.166685 -0.224534 -0.000011 -43.324329 -0.000177 11.739925 -6.787931 3.020576 0.000004 -7.938134 18.050707 -0.000000 0.000001 -0.000000 8.571347 -0.000070 0.000008 -35.950800 -5.970892 -3.468915 0.000023 -44.326080 -0.000083 129.188261 0.026728 0.065588 -0.000006 -43.324318 -0.000178 -0.227217 -6.349693 -5.786297 0.000020 -7.938137 18.050684 0.000000 -0.000000 -0.000000 0.000017 10.422836 -1.158096 1.813505 -2.257538 -0.363109 -5.019564 -0.979476 -0.271011 0.000013 10.579560 -0.000442 0.800868 -0.979449 -0.271109 -0.000003 10.567753 -0.000435 6.438222 -0.751223 -0.128948 3.218387 8.290520 -0.000000 -7.657727 0.605102 -0.213218 28.091585 -13.465831 -75.018440 16.764307 -14.188162 -7.637436 2.254054 10.755803 -15.492389 -3.218388 8.290528 0.000001 -10.471281 -5.879921 0.550436 20.131983 20.325023 84.886732 16.905326 1.441308 3.913131 1.250331 -12.144379 18.538498 0.000007 14.789473 -0.000003 3.945972 -0.139607 0.835921 -0.000006 9.838790 0.000959 -28.695127 -0.683506 1.413725 
-183.601730 18.189735 172.597412 -103.773004 -6.551840 28.124204 -8.571305 0.002259 -0.000246 -28.400444 1.636646 -3.139125 -0.000007 -44.326096 -0.000119 118.100910 -0.162188 -0.223066 -0.000016 -43.324329 -0.000184 11.738215 -6.793788 3.017601 -0.000010 -7.938132 18.050695 -0.000000 0.000001 0.000000 8.571311 -0.000081 0.000007 -35.949888 -5.968216 -3.472853 -0.000002 -44.326069 -0.000089 129.190050 0.031433 0.069265 -0.000008 -43.324329 -0.000152 -0.227101 -6.348107 -5.786368 0.000007 -7.938135 18.050692 -0.000000 -0.000001 0.000000 0.000018 10.422844 -1.158088 1.814667 -2.257816 -0.363023 -5.019047 -0.979601 -0.270992 0.000005 10.579540 -0.000447 0.801383 -0.979572 -0.271095 0.000009 10.567745 -0.000438 6.438607 -0.751313 -0.128929 3.218351 8.290525 -0.000006 -7.660002 0.606662 -0.212880 28.093408 -13.466390 -75.017682 16.766219 -14.188731 -7.637285 2.253538 10.756349 -15.492401 -3.218413 8.290528 -0.000004 -10.473282 -5.878651 0.551122 20.134112 20.327492 84.886991 16.900936 1.441814 3.912488 1.251324 -12.143899 18.540053 -0.000032 14.789476 -0.000004 3.945421 -0.140787 0.835701 0.000014 9.838803 0.000962 -28.696135 -0.685494 1.412710 
-183.602615 18.190247 172.597717 -103.774206 -6.553093 28.123507 -8.571326 0.002241 -0.000245 -28.401110 1.632759 -3.141555 0.000003 -44.326084 -0.000098 118.101593 -0.157987 -0.221623 -0.000007 -43.324329 -0.000192 11.736119 -6.799328 3.013334 -0.000010 -7.938131 18.050688 -0.000000 0.000001 -0.000000 8.571321 -0.000084 0.000018 -35.948792 -5.964977 -3.475855 0.000007 -44.326077 -0.000081 129.191894 0.038199 0.073636 0.000003 -43.324318 -0.000170 -0.227754 -6.347684 -5.787370 0.000023 -7.938132 18.050694 -0.000001 0.000000 -0.000000 -0.000009 10.422827 -1.158092 1.815691 -2.258138 -0.362951 -5.018591 -0.979745 -0.270979 -0.000008 10.579580 -0.000438 0.801839 -0.979717 -0.271079 0.000005 10.567737 -0.000442 6.438950 -0.751420 -0.128909 3.218380 8.290499 0.000002 -7.661837 0.608585 -0.212699 28.094585 -13.465755 -75.016507 16.769252 -14.189027 -7.637798 2.253376 10.756788 -15.492761 -3.218399 8.290502 0.000000 -10.475068 -5.876833 0.551663 20.135811 20.329433 84.888057 16.899777 1.441951 3.911613 1.253156 -12.143222 18.542080 -0.000007 14.789474 0.000001 3.945291 -0.142717 0.835629 -0.000006 9.838799 0.000957 -28.696381 -0.688885 1.411583 
